<svg version="1.1" viewBox="0.0 0.0 1024.0 768.0" fill="none" stroke="none" stroke-linecap="square" stroke-miterlimit="10" xmlns:xlink="http://www.w3.org/1999/xlink" xmlns="http://www.w3.org/2000/svg"><clipPath id="p.0"><path d="m0 0l1024.0 0l0 768.0l-1024.0 0l0 -768.0z" clip-rule="nonzero"/></clipPath><g clip-path="url(#p.0)"><path fill="#000000" fill-opacity="0.0" d="m0 0l1024.0 0l0 768.0l-1024.0 0z" fill-rule="evenodd"/><path fill="#efefef" d="m19.61155 166.38504l0 0c0 -50.927177 41.284637 -92.211815 92.211815 -92.211815l796.2063 0c24.456055 0 47.910522 9.715149 65.20361 27.008217c17.29303 17.293076 27.008179 40.747513 27.008179 65.2036l0 368.8362c0 50.927185 -41.284607 92.21179 -92.21179 92.21179l-796.2063 0c-50.927177 0 -92.211815 -41.284607 -92.211815 -92.21179z" fill-rule="evenodd"/><path stroke="#000000" stroke-width="1.0" stroke-linejoin="round" stroke-linecap="butt" d="m19.61155 166.38504l0 0c0 -50.927177 41.284637 -92.211815 92.211815 -92.211815l796.2063 0c24.456055 0 47.910522 9.715149 65.20361 27.008217c17.29303 17.293076 27.008179 40.747513 27.008179 65.2036l0 368.8362c0 50.927185 -41.284607 92.21179 -92.21179 92.21179l-796.2063 0c-50.927177 0 -92.211815 -41.284607 -92.211815 -92.21179z" fill-rule="evenodd"/><path fill="#cfe2f3" d="m70.48393 489.50064l0 0c0 -8.720764 7.0695724 -15.790344 15.790337 -15.790344l222.75003 0c4.187866 0 8.204193 1.6636353 11.165466 4.6249084c2.9612732 2.9612427 4.624878 6.9776 4.624878 11.165436l0 63.159515c0 8.720764 -7.06958 15.790283 -15.790344 15.790283l-222.75003 0l0 0c-8.720764 0 -15.790337 -7.069519 -15.790337 -15.790283z" fill-rule="evenodd"/><path stroke="#000000" stroke-width="1.0" stroke-linejoin="round" stroke-linecap="butt" d="m70.48393 489.50064l0 0c0 -8.720764 7.0695724 -15.790344 15.790337 -15.790344l222.75003 0c4.187866 0 8.204193 1.6636353 11.165466 4.6249084c2.9612732 2.9612427 4.624878 6.9776 4.624878 11.165436l0 63.159515c0 8.720764 -7.06958 15.790283 -15.790344 15.790283l-222.75003 0l0 0c-8.720764 0 -15.790337 -7.069519 -15.790337 -15.790283z" fill-rule="evenodd"/><path fill="#000000" fill-opacity="0.0" d="m140.44771 495.1226l114.3622 0l0 42.015778l-114.3622 0z" fill-rule="evenodd"/><path fill="#000000" d="m154.85396 522.2301q-0.921875 0 -1.71875 -0.28125q-0.796875 -0.296875 -1.390625 -0.921875q-0.59375 -0.625 -0.9375 -1.59375q-0.328125 -0.96875 -0.328125 -2.34375q0 -1.421875 0.34375 -2.421875q0.34375 -1.0 0.953125 -1.625q0.609375 -0.625 1.421875 -0.90625q0.8125 -0.28125 1.734375 -0.28125q0.703125 0 1.375 0.15625q0.6875 0.15625 1.140625 0.390625l-0.484375 1.390625q-0.203125 -0.078125 -0.46875 -0.171875q-0.25 -0.09375 -0.53125 -0.15625q-0.265625 -0.0625 -0.53125 -0.109375q-0.265625 -0.046875 -0.5 -0.046875q-1.4375 0 -2.09375 0.921875q-0.65625 0.921875 -0.65625 2.84375q0 1.921875 0.65625 2.8125q0.671875 0.890625 2.015625 0.890625q0.75 0 1.34375 -0.171875q0.59375 -0.171875 1.078125 -0.390625l0 1.46875q-0.484375 0.265625 -1.046875 0.40625q-0.5625 0.140625 -1.375 0.140625zm9.338928 -10.375q0.84375 0 1.546875 0.328125q0.703125 0.328125 1.203125 0.984375q0.5 0.65625 0.765625 1.625q0.28125 0.953125 0.28125 2.234375q0 1.28125 -0.28125 2.25q-0.265625 0.96875 -0.765625 1.625q-0.5 0.65625 -1.203125 1.0q-0.703125 0.328125 -1.546875 0.328125q-0.546875 0 -0.984375 -0.125q-0.4375 -0.109375 -0.796875 -0.3125q-0.34375 -0.203125 -0.609375 -0.453125q-0.265625 -0.265625 -0.46875 -0.5625l-0.109375 0l-0.34375 1.265625l-1.21875 0l0 -14.171875l1.671875 0l0 3.421875q0 0.3125 -0.015625 0.6875q-0.015625 0.359375 -0.03125 0.65625q-0.015625 0.375 -0.03125 0.71875l0.078125 0q0.203125 -0.328125 0.46875 -0.59375q0.265625 -0.28125 0.609375 -0.46875q0.359375 -0.203125 0.796875 -0.3125q0.4375 -0.125 0.984375 -0.125zm-0.328125 1.375q-0.71875 0 -1.21875 0.234375q-0.484375 0.234375 -0.78125 0.71875q-0.296875 0.46875 -0.421875 1.1875q-0.109375 0.703125 -0.109375 1.65625q0 0.921875 0.109375 1.640625q0.125 0.703125 0.421875 1.203125q0.296875 0.484375 0.78125 0.734375q0.5 0.25 1.234375 0.25q1.234375 0 1.8125 -0.984375q0.578125 -1.0 0.578125 -2.859375q0 -1.90625 -0.578125 -2.84375q-0.578125 -0.9375 -1.828125 -0.9375zm18.712646 8.8125l0 -6.4375q0 -1.1875 -0.453125 -1.78125q-0.453125 -0.59375 -1.40625 -0.59375q-0.671875 0 -1.140625 0.21875q-0.453125 0.21875 -0.75 0.640625q-0.296875 0.40625 -0.4375 1.015625q-0.140625 0.609375 -0.140625 1.421875l0 5.515625l-1.671875 0l0 -6.4375q0 -1.1875 -0.453125 -1.78125q-0.4375 -0.59375 -1.390625 -0.59375q-0.703125 0 -1.1875 0.25q-0.46875 0.234375 -0.765625 0.703125q-0.28125 0.453125 -0.40625 1.125q-0.109375 0.671875 -0.109375 1.546875l0 5.1875l-1.671875 0l0 -10.0l1.359375 0l0.234375 1.34375l0.09375 0q0.21875 -0.390625 0.515625 -0.671875q0.296875 -0.296875 0.65625 -0.484375q0.359375 -0.1875 0.765625 -0.28125q0.40625 -0.09375 0.828125 -0.09375q1.09375 0 1.8125 0.40625q0.734375 0.40625 1.078125 1.25l0.0625 0q0.25 -0.421875 0.578125 -0.734375q0.328125 -0.3125 0.71875 -0.515625q0.40625 -0.203125 0.84375 -0.296875q0.4375 -0.109375 0.890625 -0.109375q1.59375 0 2.390625 0.875q0.8125 0.875 0.8125 2.78125l0 6.53125l-1.65625 0zm10.856552 2.953125l-7.734375 0l0 -1.28125l7.734375 0l0 1.28125zm7.5295715 -5.6875q0 0.71875 -0.265625 1.265625q-0.25 0.546875 -0.75 0.921875q-0.5 0.359375 -1.203125 0.546875q-0.703125 0.1875 -1.578125 0.1875q-0.984375 0 -1.703125 -0.171875q-0.703125 -0.15625 -1.25 -0.46875l0 -1.5q0.296875 0.140625 0.640625 0.28125q0.34375 0.140625 0.71875 0.25q0.390625 0.109375 0.796875 0.1875q0.40625 0.0625 0.796875 0.0625q0.59375 0 1.0 -0.09375q0.421875 -0.109375 0.6875 -0.296875q0.265625 -0.1875 0.375 -0.453125q0.125 -0.265625 0.125 -0.59375q0 -0.28125 -0.09375 -0.515625q-0.09375 -0.234375 -0.34375 -0.453125q-0.234375 -0.21875 -0.65625 -0.4375q-0.40625 -0.234375 -1.0625 -0.515625q-0.65625 -0.28125 -1.1875 -0.546875q-0.515625 -0.28125 -0.890625 -0.625q-0.359375 -0.34375 -0.5625 -0.78125q-0.1875 -0.4375 -0.1875 -1.046875q0 -0.640625 0.25 -1.140625q0.25 -0.5 0.703125 -0.828125q0.453125 -0.34375 1.09375 -0.515625q0.640625 -0.171875 1.421875 -0.171875q0.875 0 1.609375 0.203125q0.734375 0.1875 1.390625 0.5l-0.5625 1.328125q-0.59375 -0.265625 -1.21875 -0.453125q-0.625 -0.203125 -1.28125 -0.203125q-0.921875 0 -1.375 0.3125q-0.4375 0.296875 -0.4375 0.859375q0 0.328125 0.09375 0.5625q0.109375 0.234375 0.359375 0.453125q0.265625 0.203125 0.6875 0.421875q0.4375 0.203125 1.0625 0.46875q0.65625 0.28125 1.171875 0.5625q0.515625 0.265625 0.875 0.609375q0.375 0.328125 0.5625 0.765625q0.1875 0.4375 0.1875 1.0625zm5.4640503 1.5625q0.15625 0 0.359375 -0.015625q0.21875 -0.03125 0.40625 -0.046875q0.1875 -0.03125 0.34375 -0.0625q0.171875 -0.046875 0.25 -0.0625l0 1.25q-0.125 0.0625 -0.3125 0.109375q-0.171875 0.046875 -0.390625 0.09375q-0.21875 0.046875 -0.453125 0.0625q-0.234375 0.03125 -0.46875 0.03125q-0.5625 0 -1.046875 -0.15625q-0.484375 -0.140625 -0.84375 -0.484375q-0.34375 -0.359375 -0.546875 -0.96875q-0.1875 -0.609375 -0.1875 -1.53125l0 -5.796875l-1.421875 0l0 -0.734375l1.421875 -0.71875l0.703125 -2.09375l0.953125 0l0 2.296875l2.515625 0l0 1.25l-2.515625 0l0 5.796875q0 0.890625 0.28125 1.34375q0.296875 0.4375 0.953125 0.4375zm8.931366 1.171875l-0.328125 -1.390625l-0.078125 0q-0.296875 0.421875 -0.609375 0.71875q-0.296875 0.296875 -0.65625 0.484375q-0.34375 0.1875 -0.78125 0.28125q-0.4375 0.09375 -1.015625 0.09375q-0.625 0 -1.15625 -0.1875q-0.53125 -0.171875 -0.921875 -0.53125q-0.375 -0.375 -0.59375 -0.9375q-0.21875 -0.5625 -0.21875 -1.328125q0 -1.5 1.046875 -2.296875q1.046875 -0.796875 3.203125 -0.875l1.671875 -0.0625l0 -0.625q0 -0.609375 -0.140625 -1.015625q-0.125 -0.421875 -0.375 -0.671875q-0.25 -0.25 -0.625 -0.359375q-0.359375 -0.109375 -0.828125 -0.109375q-0.765625 0 -1.421875 0.21875q-0.640625 0.21875 -1.234375 0.53125l-0.59375 -1.25q0.671875 -0.359375 1.5 -0.609375q0.84375 -0.265625 1.75 -0.265625q0.921875 0 1.59375 0.1875q0.6875 0.1875 1.125 0.59375q0.453125 0.40625 0.671875 1.03125q0.21875 0.625 0.21875 1.53125l0 6.84375l-1.203125 0zm-3.03125 -1.15625q0.546875 0 1.015625 -0.171875q0.484375 -0.171875 0.828125 -0.515625q0.34375 -0.359375 0.53125 -0.890625q0.203125 -0.53125 0.203125 -1.25l0 -0.90625l-1.296875 0.0625q-0.828125 0.03125 -1.390625 0.1875q-0.546875 0.140625 -0.875 0.40625q-0.328125 0.25 -0.484375 0.625q-0.140625 0.359375 -0.140625 0.828125q0 0.84375 0.4375 1.234375q0.453125 0.390625 1.171875 0.390625zm10.323898 -0.015625q0.15625 0 0.359375 -0.015625q0.21875 -0.03125 0.40625 -0.046875q0.1875 -0.03125 0.34375 -0.0625q0.171875 -0.046875 0.25 -0.0625l0 1.25q-0.125 0.0625 -0.3125 0.109375q-0.171875 0.046875 -0.390625 0.09375q-0.21875 0.046875 -0.453125 0.0625q-0.234375 0.03125 -0.46875 0.03125q-0.5625 0 -1.046875 -0.15625q-0.484375 -0.140625 -0.84375 -0.484375q-0.34375 -0.359375 -0.546875 -0.96875q-0.1875 -0.609375 -0.1875 -1.53125l0 -5.796875l-1.421875 0l0 -0.734375l1.421875 -0.71875l0.703125 -2.09375l0.953125 0l0 2.296875l2.515625 0l0 1.25l-2.515625 0l0 5.796875q0 0.890625 0.28125 1.34375q0.296875 0.4375 0.953125 0.4375zm7.243866 1.359375q-1.0 0 -1.828125 -0.328125q-0.828125 -0.34375 -1.421875 -0.984375q-0.59375 -0.65625 -0.921875 -1.609375q-0.328125 -0.96875 -0.328125 -2.1875q0 -1.25 0.296875 -2.21875q0.296875 -0.96875 0.84375 -1.640625q0.546875 -0.6875 1.3125 -1.046875q0.765625 -0.359375 1.6875 -0.359375q0.890625 0 1.609375 0.328125q0.71875 0.328125 1.21875 0.921875q0.515625 0.578125 0.78125 1.40625q0.265625 0.8125 0.265625 1.8125l0 1.03125l-6.3125 0q0.046875 1.765625 0.75 2.59375q0.703125 0.828125 2.078125 0.828125q0.453125 0 0.84375 -0.046875q0.40625 -0.046875 0.765625 -0.125q0.375 -0.09375 0.71875 -0.21875q0.359375 -0.140625 0.703125 -0.296875l0 1.46875q-0.359375 0.171875 -0.71875 0.3125q-0.34375 0.125 -0.71875 0.203125q-0.359375 0.078125 -0.765625 0.109375q-0.390625 0.046875 -0.859375 0.046875zm-0.40625 -9.0q-1.03125 0 -1.640625 0.71875q-0.609375 0.703125 -0.703125 2.0625l4.484375 0q0 -0.625 -0.125 -1.125q-0.125 -0.515625 -0.390625 -0.875q-0.25 -0.375 -0.65625 -0.578125q-0.40625 -0.203125 -0.96875 -0.203125z" fill-rule="nonzero"/><path fill="#cfe2f3" d="m383.82166 489.50064l0 0c0 -8.720764 7.06958 -15.790344 15.790344 -15.790344l222.75 0c4.187866 0 8.204224 1.6636353 11.165466 4.6249084c2.9613037 2.9612427 4.624878 6.9776 4.624878 11.165436l0 63.159515c0 8.720764 -7.069519 15.790283 -15.790344 15.790283l-222.75 0l0 0c-8.720764 0 -15.790344 -7.069519 -15.790344 -15.790283z" fill-rule="evenodd"/><path stroke="#000000" stroke-width="1.0" stroke-linejoin="round" stroke-linecap="butt" d="m383.82166 489.50064l0 0c0 -8.720764 7.06958 -15.790344 15.790344 -15.790344l222.75 0c4.187866 0 8.204224 1.6636353 11.165466 4.6249084c2.9613037 2.9612427 4.624878 6.9776 4.624878 11.165436l0 63.159515c0 8.720764 -7.069519 15.790283 -15.790344 15.790283l-222.75 0l0 0c-8.720764 0 -15.790344 -7.069519 -15.790344 -15.790283z" fill-rule="evenodd"/><path fill="#000000" fill-opacity="0.0" d="m453.78543 495.1226l114.36221 0l0 42.015778l-114.36221 0z" fill-rule="evenodd"/><path fill="#000000" d="m468.19168 522.2301q-0.921875 0 -1.71875 -0.28125q-0.796875 -0.296875 -1.390625 -0.921875q-0.59375 -0.625 -0.9375 -1.59375q-0.328125 -0.96875 -0.328125 -2.34375q0 -1.421875 0.34375 -2.421875q0.34375 -1.0 0.953125 -1.625q0.609375 -0.625 1.421875 -0.90625q0.8125 -0.28125 1.734375 -0.28125q0.703125 0 1.375 0.15625q0.6875 0.15625 1.140625 0.390625l-0.484375 1.390625q-0.203125 -0.078125 -0.46875 -0.171875q-0.25 -0.09375 -0.53125 -0.15625q-0.265625 -0.0625 -0.53125 -0.109375q-0.265625 -0.046875 -0.5 -0.046875q-1.4375 0 -2.09375 0.921875q-0.65625 0.921875 -0.65625 2.84375q0 1.921875 0.65625 2.8125q0.671875 0.890625 2.015625 0.890625q0.75 0 1.34375 -0.171875q0.59375 -0.171875 1.078125 -0.390625l0 1.46875q-0.484375 0.265625 -1.046875 0.40625q-0.5625 0.140625 -1.375 0.140625zm9.338928 -10.375q0.84375 0 1.546875 0.328125q0.703125 0.328125 1.203125 0.984375q0.5 0.65625 0.765625 1.625q0.28125 0.953125 0.28125 2.234375q0 1.28125 -0.28125 2.25q-0.265625 0.96875 -0.765625 1.625q-0.5 0.65625 -1.203125 1.0q-0.703125 0.328125 -1.546875 0.328125q-0.546875 0 -0.984375 -0.125q-0.4375 -0.109375 -0.796875 -0.3125q-0.34375 -0.203125 -0.609375 -0.453125q-0.265625 -0.265625 -0.46875 -0.5625l-0.109375 0l-0.34375 1.265625l-1.21875 0l0 -14.171875l1.671875 0l0 3.421875q0 0.3125 -0.015625 0.6875q-0.015625 0.359375 -0.03125 0.65625q-0.015625 0.375 -0.03125 0.71875l0.078125 0q0.203125 -0.328125 0.46875 -0.59375q0.265625 -0.28125 0.609375 -0.46875q0.359375 -0.203125 0.796875 -0.3125q0.4375 -0.125 0.984375 -0.125zm-0.328125 1.375q-0.71875 0 -1.21875 0.234375q-0.484375 0.234375 -0.78125 0.71875q-0.296875 0.46875 -0.421875 1.1875q-0.109375 0.703125 -0.109375 1.65625q0 0.921875 0.109375 1.640625q0.125 0.703125 0.421875 1.203125q0.296875 0.484375 0.78125 0.734375q0.5 0.25 1.234375 0.25q1.234375 0 1.8125 -0.984375q0.578125 -1.0 0.578125 -2.859375q0 -1.90625 -0.578125 -2.84375q-0.578125 -0.9375 -1.828125 -0.9375zm18.712646 8.8125l0 -6.4375q0 -1.1875 -0.453125 -1.78125q-0.453125 -0.59375 -1.40625 -0.59375q-0.671875 0 -1.140625 0.21875q-0.453125 0.21875 -0.75 0.640625q-0.296875 0.40625 -0.4375 1.015625q-0.140625 0.609375 -0.140625 1.421875l0 5.515625l-1.671875 0l0 -6.4375q0 -1.1875 -0.453125 -1.78125q-0.4375 -0.59375 -1.390625 -0.59375q-0.703125 0 -1.1875 0.25q-0.46875 0.234375 -0.765625 0.703125q-0.28125 0.453125 -0.40625 1.125q-0.109375 0.671875 -0.109375 1.546875l0 5.1875l-1.671875 0l0 -10.0l1.359375 0l0.234375 1.34375l0.09375 0q0.21875 -0.390625 0.515625 -0.671875q0.296875 -0.296875 0.65625 -0.484375q0.359375 -0.1875 0.765625 -0.28125q0.40625 -0.09375 0.828125 -0.09375q1.09375 0 1.8125 0.40625q0.734375 0.40625 1.078125 1.25l0.0625 0q0.25 -0.421875 0.578125 -0.734375q0.328125 -0.3125 0.71875 -0.515625q0.40625 -0.203125 0.84375 -0.296875q0.4375 -0.109375 0.890625 -0.109375q1.59375 0 2.390625 0.875q0.8125 0.875 0.8125 2.78125l0 6.53125l-1.65625 0zm10.856567 2.953125l-7.734375 0l0 -1.28125l7.734375 0l0 1.28125zm5.3733215 -2.765625q-0.921875 0 -1.71875 -0.28125q-0.796875 -0.296875 -1.390625 -0.921875q-0.59375 -0.625 -0.9375 -1.59375q-0.328125 -0.96875 -0.328125 -2.34375q0 -1.421875 0.34375 -2.421875q0.34375 -1.0 0.953125 -1.625q0.609375 -0.625 1.421875 -0.90625q0.8125 -0.28125 1.734375 -0.28125q0.703125 0 1.375 0.15625q0.6875 0.15625 1.140625 0.390625l-0.484375 1.390625q-0.203125 -0.078125 -0.46875 -0.171875q-0.25 -0.09375 -0.53125 -0.15625q-0.265625 -0.0625 -0.53125 -0.109375q-0.265625 -0.046875 -0.5 -0.046875q-1.4375 0 -2.09375 0.921875q-0.65625 0.921875 -0.65625 2.84375q0 1.921875 0.65625 2.8125q0.671875 0.890625 2.015625 0.890625q0.75 0 1.34375 -0.171875q0.59375 -0.171875 1.078125 -0.390625l0 1.46875q-0.484375 0.265625 -1.046875 0.40625q-0.5625 0.140625 -1.375 0.140625zm12.963928 -5.203125q0 1.25 -0.3125 2.21875q-0.296875 0.96875 -0.875 1.625q-0.5625 0.65625 -1.375 1.015625q-0.796875 0.34375 -1.8125 0.34375q-0.9375 0 -1.734375 -0.34375q-0.796875 -0.359375 -1.375 -1.015625q-0.578125 -0.65625 -0.90625 -1.625q-0.3125 -0.96875 -0.3125 -2.21875q0 -1.25 0.296875 -2.203125q0.3125 -0.96875 0.875 -1.625q0.5625 -0.65625 1.375 -1.0q0.828125 -0.34375 1.828125 -0.34375q0.9375 0 1.734375 0.34375q0.796875 0.34375 1.375 1.0q0.578125 0.65625 0.890625 1.625q0.328125 0.953125 0.328125 2.203125zm-7.0 0q0 1.90625 0.625 2.875q0.625 0.953125 2.03125 0.953125q1.40625 0 2.015625 -0.953125q0.625 -0.96875 0.625 -2.875q0 -1.90625 -0.625 -2.84375q-0.625 -0.953125 -2.03125 -0.953125q-1.40625 0 -2.03125 0.953125q-0.609375 0.9375 -0.609375 2.84375zm13.93927 -5.171875q0.265625 0 0.59375 0.03125q0.328125 0.015625 0.5625 0.0625l-0.21875 1.53125q-0.25 -0.046875 -0.515625 -0.078125q-0.265625 -0.03125 -0.5 -0.03125q-0.578125 0 -1.0625 0.234375q-0.46875 0.234375 -0.8125 0.671875q-0.34375 0.421875 -0.53125 1.03125q-0.171875 0.609375 -0.171875 1.34375l0 5.390625l-1.671875 0l0 -10.0l1.359375 0l0.203125 1.828125l0.0625 0q0.234375 -0.390625 0.484375 -0.75q0.265625 -0.375 0.578125 -0.640625q0.328125 -0.28125 0.734375 -0.453125q0.40625 -0.171875 0.90625 -0.171875zm7.067505 10.375q-1.0 0 -1.828125 -0.328125q-0.828125 -0.34375 -1.421875 -0.984375q-0.59375 -0.65625 -0.921875 -1.609375q-0.328125 -0.96875 -0.328125 -2.1875q0 -1.25 0.296875 -2.21875q0.296875 -0.96875 0.84375 -1.640625q0.546875 -0.6875 1.3125 -1.046875q0.765625 -0.359375 1.6875 -0.359375q0.890625 0 1.609375 0.328125q0.71875 0.328125 1.21875 0.921875q0.515625 0.578125 0.78125 1.40625q0.265625 0.8125 0.265625 1.8125l0 1.03125l-6.3125 0q0.046875 1.765625 0.75 2.59375q0.703125 0.828125 2.078125 0.828125q0.453125 0 0.84375 -0.046875q0.40625 -0.046875 0.765625 -0.125q0.375 -0.09375 0.71875 -0.21875q0.359375 -0.140625 0.703125 -0.296875l0 1.46875q-0.359375 0.171875 -0.71875 0.3125q-0.34375 0.125 -0.71875 0.203125q-0.359375 0.078125 -0.765625 0.109375q-0.390625 0.046875 -0.859375 0.046875zm-0.40625 -9.0q-1.03125 0 -1.640625 0.71875q-0.609375 0.703125 -0.703125 2.0625l4.484375 0q0 -0.625 -0.125 -1.125q-0.125 -0.515625 -0.390625 -0.875q-0.25 -0.375 -0.65625 -0.578125q-0.40625 -0.203125 -0.96875 -0.203125z" fill-rule="nonzero"/><path fill="#cfe2f3" d="m697.1594 489.50064l0 0c0 -8.720764 7.069519 -15.790344 15.790283 -15.790344l222.75006 0c4.187866 0 8.204163 1.6636353 11.165466 4.6249084c2.9612427 2.9612427 4.624878 6.9776 4.624878 11.165436l0 63.159515c0 8.720764 -7.06958 15.790283 -15.790344 15.790283l-222.75006 0l0 0c-8.720764 0 -15.790283 -7.069519 -15.790283 -15.790283z" fill-rule="evenodd"/><path stroke="#000000" stroke-width="1.0" stroke-linejoin="round" stroke-linecap="butt" d="m697.1594 489.50064l0 0c0 -8.720764 7.069519 -15.790344 15.790283 -15.790344l222.75006 0c4.187866 0 8.204163 1.6636353 11.165466 4.6249084c2.9612427 2.9612427 4.624878 6.9776 4.624878 11.165436l0 63.159515c0 8.720764 -7.06958 15.790283 -15.790344 15.790283l-222.75006 0l0 0c-8.720764 0 -15.790283 -7.069519 -15.790283 -15.790283z" fill-rule="evenodd"/><path fill="#000000" fill-opacity="0.0" d="m767.12317 495.1226l114.36218 0l0 42.015778l-114.36218 0z" fill-rule="evenodd"/><path fill="#000000" d="m781.5294 522.2301q-0.921875 0 -1.71875 -0.28125q-0.796875 -0.296875 -1.390625 -0.921875q-0.59375 -0.625 -0.9375 -1.59375q-0.328125 -0.96875 -0.328125 -2.34375q0 -1.421875 0.34375 -2.421875q0.34375 -1.0 0.953125 -1.625q0.609375 -0.625 1.421875 -0.90625q0.8125 -0.28125 1.734375 -0.28125q0.703125 0 1.375 0.15625q0.6875 0.15625 1.140625 0.390625l-0.484375 1.390625q-0.203125 -0.078125 -0.46875 -0.171875q-0.25 -0.09375 -0.53125 -0.15625q-0.265625 -0.0625 -0.53125 -0.109375q-0.265625 -0.046875 -0.5 -0.046875q-1.4375 0 -2.09375 0.921875q-0.65625 0.921875 -0.65625 2.84375q0 1.921875 0.65625 2.8125q0.671875 0.890625 2.015625 0.890625q0.75 0 1.34375 -0.171875q0.59375 -0.171875 1.078125 -0.390625l0 1.46875q-0.484375 0.265625 -1.046875 0.40625q-0.5625 0.140625 -1.375 0.140625zm9.338928 -10.375q0.84375 0 1.546875 0.328125q0.703125 0.328125 1.203125 0.984375q0.5 0.65625 0.765625 1.625q0.28125 0.953125 0.28125 2.234375q0 1.28125 -0.28125 2.25q-0.265625 0.96875 -0.765625 1.625q-0.5 0.65625 -1.203125 1.0q-0.703125 0.328125 -1.546875 0.328125q-0.546875 0 -0.984375 -0.125q-0.4375 -0.109375 -0.796875 -0.3125q-0.34375 -0.203125 -0.609375 -0.453125q-0.265625 -0.265625 -0.46875 -0.5625l-0.109375 0l-0.34375 1.265625l-1.21875 0l0 -14.171875l1.671875 0l0 3.421875q0 0.3125 -0.015625 0.6875q-0.015625 0.359375 -0.03125 0.65625q-0.015625 0.375 -0.03125 0.71875l0.078125 0q0.203125 -0.328125 0.46875 -0.59375q0.265625 -0.28125 0.609375 -0.46875q0.359375 -0.203125 0.796875 -0.3125q0.4375 -0.125 0.984375 -0.125zm-0.328125 1.375q-0.71875 0 -1.21875 0.234375q-0.484375 0.234375 -0.78125 0.71875q-0.296875 0.46875 -0.421875 1.1875q-0.109375 0.703125 -0.109375 1.65625q0 0.921875 0.109375 1.640625q0.125 0.703125 0.421875 1.203125q0.296875 0.484375 0.78125 0.734375q0.5 0.25 1.234375 0.25q1.234375 0 1.8125 -0.984375q0.578125 -1.0 0.578125 -2.859375q0 -1.90625 -0.578125 -2.84375q-0.578125 -0.9375 -1.828125 -0.9375zm18.712646 8.8125l0 -6.4375q0 -1.1875 -0.453125 -1.78125q-0.453125 -0.59375 -1.40625 -0.59375q-0.671875 0 -1.140625 0.21875q-0.453125 0.21875 -0.75 0.640625q-0.296875 0.40625 -0.4375 1.015625q-0.140625 0.609375 -0.140625 1.421875l0 5.515625l-1.671875 0l0 -6.4375q0 -1.1875 -0.453125 -1.78125q-0.4375 -0.59375 -1.390625 -0.59375q-0.703125 0 -1.1875 0.25q-0.46875 0.234375 -0.765625 0.703125q-0.28125 0.453125 -0.40625 1.125q-0.109375 0.671875 -0.109375 1.546875l0 5.1875l-1.671875 0l0 -10.0l1.359375 0l0.234375 1.34375l0.09375 0q0.21875 -0.390625 0.515625 -0.671875q0.296875 -0.296875 0.65625 -0.484375q0.359375 -0.1875 0.765625 -0.28125q0.40625 -0.09375 0.828125 -0.09375q1.09375 0 1.8125 0.40625q0.734375 0.40625 1.078125 1.25l0.0625 0q0.25 -0.421875 0.578125 -0.734375q0.328125 -0.3125 0.71875 -0.515625q0.40625 -0.203125 0.84375 -0.296875q0.4375 -0.109375 0.890625 -0.109375q1.59375 0 2.390625 0.875q0.8125 0.875 0.8125 2.78125l0 6.53125l-1.65625 0zm10.856567 2.953125l-7.734375 0l0 -1.28125l7.734375 0l0 1.28125zm3.388916 -2.953125l-3.421875 -10.0l1.71875 0l1.8125 5.5625q0.09375 0.296875 0.234375 0.78125q0.140625 0.46875 0.265625 0.96875q0.140625 0.484375 0.25 0.921875q0.125 0.4375 0.15625 0.65625l0.0625 0q0.046875 -0.21875 0.15625 -0.65625q0.109375 -0.4375 0.234375 -0.921875q0.140625 -0.5 0.28125 -0.96875q0.140625 -0.484375 0.234375 -0.78125l1.8125 -5.5625l1.71875 0l-3.421875 10.0l-2.09375 0zm8.764587 0l-1.671875 0l0 -10.0l1.671875 0l0 10.0zm-1.796875 -12.703125q0 -0.546875 0.28125 -0.796875q0.28125 -0.25 0.6875 -0.25q0.203125 0 0.375 0.0625q0.1875 0.0625 0.3125 0.1875q0.140625 0.125 0.203125 0.328125q0.078125 0.1875 0.078125 0.46875q0 0.53125 -0.28125 0.796875q-0.28125 0.25 -0.6875 0.25q-0.40625 0 -0.6875 -0.25q-0.28125 -0.265625 -0.28125 -0.796875zm10.937378 9.96875q0 0.71875 -0.265625 1.265625q-0.25 0.546875 -0.75 0.921875q-0.5 0.359375 -1.203125 0.546875q-0.703125 0.1875 -1.578125 0.1875q-0.984375 0 -1.703125 -0.171875q-0.703125 -0.15625 -1.25 -0.46875l0 -1.5q0.296875 0.140625 0.640625 0.28125q0.34375 0.140625 0.71875 0.25q0.390625 0.109375 0.796875 0.1875q0.40625 0.0625 0.796875 0.0625q0.59375 0 1.0 -0.09375q0.421875 -0.109375 0.6875 -0.296875q0.265625 -0.1875 0.375 -0.453125q0.125 -0.265625 0.125 -0.59375q0 -0.28125 -0.09375 -0.515625q-0.09375 -0.234375 -0.34375 -0.453125q-0.234375 -0.21875 -0.65625 -0.4375q-0.40625 -0.234375 -1.0625 -0.515625q-0.65625 -0.28125 -1.1875 -0.546875q-0.515625 -0.28125 -0.890625 -0.625q-0.359375 -0.34375 -0.5625 -0.78125q-0.1875 -0.4375 -0.1875 -1.046875q0 -0.640625 0.25 -1.140625q0.25 -0.5 0.703125 -0.828125q0.453125 -0.34375 1.09375 -0.515625q0.640625 -0.171875 1.421875 -0.171875q0.875 0 1.609375 0.203125q0.734375 0.1875 1.390625 0.5l-0.5625 1.328125q-0.59375 -0.265625 -1.21875 -0.453125q-0.625 -0.203125 -1.28125 -0.203125q-0.921875 0 -1.375 0.3125q-0.4375 0.296875 -0.4375 0.859375q0 0.328125 0.09375 0.5625q0.109375 0.234375 0.359375 0.453125q0.265625 0.203125 0.6875 0.421875q0.4375 0.203125 1.0625 0.46875q0.65625 0.28125 1.171875 0.5625q0.515625 0.265625 0.875 0.609375q0.375 0.328125 0.5625 0.765625q0.1875 0.4375 0.1875 1.0625z" fill-rule="nonzero"/><path fill="#cfe2f3" d="m383.82166 293.30246l0 0c0 -8.720764 7.06958 -15.790344 15.790344 -15.790344l222.75 0c4.187866 0 8.204224 1.6636047 11.165466 4.624878c2.9613037 2.9612732 4.624878 6.9776 4.624878 11.165466l0 63.159454c0 8.720764 -7.069519 15.790344 -15.790344 15.790344l-222.75 0l0 0c-8.720764 0 -15.790344 -7.06958 -15.790344 -15.790344z" fill-rule="evenodd"/><path stroke="#000000" stroke-width="1.0" stroke-linejoin="round" stroke-linecap="butt" d="m383.82166 293.30246l0 0c0 -8.720764 7.06958 -15.790344 15.790344 -15.790344l222.75 0c4.187866 0 8.204224 1.6636047 11.165466 4.624878c2.9613037 2.9612732 4.624878 6.9776 4.624878 11.165466l0 63.159454c0 8.720764 -7.069519 15.790344 -15.790344 15.790344l-222.75 0l0 0c-8.720764 0 -15.790344 -7.06958 -15.790344 -15.790344z" fill-rule="evenodd"/><path fill="#000000" fill-opacity="0.0" d="m399.77628 298.92114l215.37009 0l0 42.015747l-215.37009 0z" fill-rule="evenodd"/><path fill="#000000" d="m414.18253 326.02866q-0.921875 0 -1.71875 -0.28125q-0.796875 -0.296875 -1.390625 -0.921875q-0.59375 -0.625 -0.9375 -1.59375q-0.328125 -0.96875 -0.328125 -2.34375q0 -1.421875 0.34375 -2.421875q0.34375 -1.0 0.953125 -1.625q0.609375 -0.625 1.421875 -0.90625q0.8125 -0.28125 1.734375 -0.28125q0.703125 0 1.375 0.15625q0.6875 0.15625 1.140625 0.390625l-0.484375 1.390625q-0.203125 -0.078125 -0.46875 -0.171875q-0.25 -0.09375 -0.53125 -0.15625q-0.265625 -0.0625 -0.53125 -0.109375q-0.265625 -0.046875 -0.5 -0.046875q-1.4375 0 -2.09375 0.921875q-0.65625 0.921875 -0.65625 2.84375q0 1.921875 0.65625 2.8125q0.671875 0.890625 2.015625 0.890625q0.75 0 1.34375 -0.171875q0.59375 -0.171875 1.078125 -0.390625l0 1.46875q-0.484375 0.265625 -1.046875 0.40625q-0.5625 0.140625 -1.375 0.140625zm12.963928 -5.203125q0 1.25 -0.3125 2.21875q-0.296875 0.96875 -0.875 1.625q-0.5625 0.65625 -1.375 1.015625q-0.796875 0.34375 -1.8125 0.34375q-0.9375 0 -1.734375 -0.34375q-0.796875 -0.359375 -1.375 -1.015625q-0.578125 -0.65625 -0.90625 -1.625q-0.3125 -0.96875 -0.3125 -2.21875q0 -1.25 0.296875 -2.203125q0.3125 -0.96875 0.875 -1.625q0.5625 -0.65625 1.375 -1.0q0.828125 -0.34375 1.828125 -0.34375q0.9375 0 1.734375 0.34375q0.796875 0.34375 1.375 1.0q0.578125 0.65625 0.890625 1.625q0.328125 0.953125 0.328125 2.203125zm-7.0 0q0 1.90625 0.625 2.875q0.625 0.953125 2.03125 0.953125q1.40625 0 2.015625 -0.953125q0.625 -0.96875 0.625 -2.875q0 -1.90625 -0.625 -2.84375q-0.625 -0.953125 -2.03125 -0.953125q-1.40625 0 -2.03125 0.953125q-0.609375 0.9375 -0.609375 2.84375zm15.861176 5.015625l0 -6.4375q0 -1.1875 -0.484375 -1.78125q-0.46875 -0.59375 -1.484375 -0.59375q-0.734375 0 -1.234375 0.25q-0.5 0.234375 -0.8125 0.703125q-0.3125 0.453125 -0.4375 1.125q-0.125 0.671875 -0.125 1.546875l0 5.1875l-1.671875 0l0 -10.0l1.359375 0l0.234375 1.34375l0.09375 0q0.21875 -0.390625 0.53125 -0.671875q0.328125 -0.296875 0.6875 -0.484375q0.375 -0.1875 0.796875 -0.28125q0.421875 -0.09375 0.859375 -0.09375q1.671875 0 2.5 0.875q0.84375 0.875 0.84375 2.78125l0 6.53125l-1.65625 0zm7.7673035 -1.171875q0.15625 0 0.359375 -0.015625q0.21875 -0.03125 0.40625 -0.046875q0.1875 -0.03125 0.34375 -0.0625q0.171875 -0.046875 0.25 -0.0625l0 1.25q-0.125 0.0625 -0.3125 0.109375q-0.171875 0.046875 -0.390625 0.09375q-0.21875 0.046875 -0.453125 0.0625q-0.234375 0.03125 -0.46875 0.03125q-0.5625 0 -1.046875 -0.15625q-0.484375 -0.140625 -0.84375 -0.484375q-0.34375 -0.359375 -0.546875 -0.96875q-0.1875 -0.609375 -0.1875 -1.53125l0 -5.796875l-1.421875 0l0 -0.734375l1.421875 -0.71875l0.703125 -2.09375l0.953125 0l0 2.296875l2.515625 0l0 1.25l-2.515625 0l0 5.796875q0 0.890625 0.28125 1.34375q0.296875 0.4375 0.953125 0.4375zm7.618866 -9.015625q0.265625 0 0.59375 0.03125q0.328125 0.015625 0.5625 0.0625l-0.21875 1.53125q-0.25 -0.046875 -0.515625 -0.078125q-0.265625 -0.03125 -0.5 -0.03125q-0.578125 0 -1.0625 0.234375q-0.46875 0.234375 -0.8125 0.671875q-0.34375 0.421875 -0.53125 1.03125q-0.171875 0.609375 -0.171875 1.34375l0 5.390625l-1.671875 0l0 -10.0l1.359375 0l0.203125 1.828125l0.0625 0q0.234375 -0.390625 0.484375 -0.75q0.265625 -0.375 0.578125 -0.640625q0.328125 -0.28125 0.734375 -0.453125q0.40625 -0.171875 0.90625 -0.171875zm11.270599 5.171875q0 1.25 -0.3125 2.21875q-0.296875 0.96875 -0.875 1.625q-0.5625 0.65625 -1.375 1.015625q-0.796875 0.34375 -1.8125 0.34375q-0.9375 0 -1.734375 -0.34375q-0.796875 -0.359375 -1.375 -1.015625q-0.578125 -0.65625 -0.90625 -1.625q-0.3125 -0.96875 -0.3125 -2.21875q0 -1.25 0.296875 -2.203125q0.3125 -0.96875 0.875 -1.625q0.5625 -0.65625 1.375 -1.0q0.828125 -0.34375 1.828125 -0.34375q0.9375 0 1.734375 0.34375q0.796875 0.34375 1.375 1.0q0.578125 0.65625 0.890625 1.625q0.328125 0.953125 0.328125 2.203125zm-7.0 0q0 1.90625 0.625 2.875q0.625 0.953125 2.03125 0.953125q1.40625 0 2.015625 -0.953125q0.625 -0.96875 0.625 -2.875q0 -1.90625 -0.625 -2.84375q-0.625 -0.953125 -2.03125 -0.953125q-1.40625 0 -2.03125 0.953125q-0.609375 0.9375 -0.609375 2.84375zm11.283051 5.015625l-1.671875 0l0 -14.171875l1.671875 0l0 14.171875zm2.9217834 -1.015625q0 -0.34375 0.078125 -0.578125q0.09375 -0.25 0.25 -0.390625q0.15625 -0.15625 0.359375 -0.21875q0.21875 -0.078125 0.46875 -0.078125q0.234375 0 0.4375 0.078125q0.21875 0.0625 0.375 0.21875q0.15625 0.140625 0.25 0.390625q0.09375 0.234375 0.09375 0.578125q0 0.34375 -0.09375 0.59375q-0.09375 0.234375 -0.25 0.390625q-0.15625 0.15625 -0.375 0.21875q-0.203125 0.078125 -0.4375 0.078125q-0.25 0 -0.46875 -0.078125q-0.203125 -0.0625 -0.359375 -0.21875q-0.15625 -0.15625 -0.25 -0.390625q-0.078125 -0.25 -0.078125 -0.59375zm11.485474 1.015625l0 -6.4375q0 -1.1875 -0.484375 -1.78125q-0.46875 -0.59375 -1.484375 -0.59375q-0.734375 0 -1.234375 0.25q-0.5 0.234375 -0.8125 0.703125q-0.3125 0.453125 -0.4375 1.125q-0.125 0.671875 -0.125 1.546875l0 5.1875l-1.671875 0l0 -14.171875l1.671875 0l0 4.203125l-0.078125 1.3125l0.09375 0q0.21875 -0.390625 0.53125 -0.671875q0.328125 -0.296875 0.6875 -0.484375q0.375 -0.1875 0.796875 -0.28125q0.421875 -0.09375 0.859375 -0.09375q1.671875 0 2.5 0.875q0.84375 0.875 0.84375 2.78125l0 6.53125l-1.65625 0zm9.923553 -13.3125l-4.953125 13.3125l-1.625 0l4.953125 -13.3125l1.625 0zm5.600281 13.5q-0.921875 0 -1.71875 -0.28125q-0.796875 -0.296875 -1.390625 -0.921875q-0.59375 -0.625 -0.9375 -1.59375q-0.328125 -0.96875 -0.328125 -2.34375q0 -1.421875 0.34375 -2.421875q0.34375 -1.0 0.953125 -1.625q0.609375 -0.625 1.421875 -0.90625q0.8125 -0.28125 1.734375 -0.28125q0.703125 0 1.375 0.15625q0.6875 0.15625 1.140625 0.390625l-0.484375 1.390625q-0.203125 -0.078125 -0.46875 -0.171875q-0.25 -0.09375 -0.53125 -0.15625q-0.265625 -0.0625 -0.53125 -0.109375q-0.265625 -0.046875 -0.5 -0.046875q-1.4375 0 -2.09375 0.921875q-0.65625 0.921875 -0.65625 2.84375q0 1.921875 0.65625 2.8125q0.671875 0.890625 2.015625 0.890625q0.75 0 1.34375 -0.171875q0.59375 -0.171875 1.078125 -0.390625l0 1.46875q-0.484375 0.265625 -1.046875 0.40625q-0.5625 0.140625 -1.375 0.140625zm12.963928 -5.203125q0 1.25 -0.3125 2.21875q-0.296875 0.96875 -0.875 1.625q-0.5625 0.65625 -1.375 1.015625q-0.796875 0.34375 -1.8125 0.34375q-0.9375 0 -1.734375 -0.34375q-0.796875 -0.359375 -1.375 -1.015625q-0.578125 -0.65625 -0.90625 -1.625q-0.3125 -0.96875 -0.3125 -2.21875q0 -1.25 0.296875 -2.203125q0.3125 -0.96875 0.875 -1.625q0.5625 -0.65625 1.375 -1.0q0.828125 -0.34375 1.828125 -0.34375q0.9375 0 1.734375 0.34375q0.796875 0.34375 1.375 1.0q0.578125 0.65625 0.890625 1.625q0.328125 0.953125 0.328125 2.203125zm-7.0 0q0 1.90625 0.625 2.875q0.625 0.953125 2.03125 0.953125q1.40625 0 2.015625 -0.953125q0.625 -0.96875 0.625 -2.875q0 -1.90625 -0.625 -2.84375q-0.625 -0.953125 -2.03125 -0.953125q-1.40625 0 -2.03125 0.953125q-0.609375 0.9375 -0.609375 2.84375zm15.861206 5.015625l0 -6.4375q0 -1.1875 -0.484375 -1.78125q-0.46875 -0.59375 -1.484375 -0.59375q-0.734375 0 -1.234375 0.25q-0.5 0.234375 -0.8125 0.703125q-0.3125 0.453125 -0.4375 1.125q-0.125 0.671875 -0.125 1.546875l0 5.1875l-1.671875 0l0 -10.0l1.359375 0l0.234375 1.34375l0.09375 0q0.21875 -0.390625 0.53125 -0.671875q0.328125 -0.296875 0.6875 -0.484375q0.375 -0.1875 0.796875 -0.28125q0.421875 -0.09375 0.859375 -0.09375q1.671875 0 2.5 0.875q0.84375 0.875 0.84375 2.78125l0 6.53125l-1.65625 0zm7.767273 -1.171875q0.15625 0 0.359375 -0.015625q0.21875 -0.03125 0.40625 -0.046875q0.1875 -0.03125 0.34375 -0.0625q0.171875 -0.046875 0.25 -0.0625l0 1.25q-0.125 0.0625 -0.3125 0.109375q-0.171875 0.046875 -0.390625 0.09375q-0.21875 0.046875 -0.453125 0.0625q-0.234375 0.03125 -0.46875 0.03125q-0.5625 0 -1.046875 -0.15625q-0.484375 -0.140625 -0.84375 -0.484375q-0.34375 -0.359375 -0.546875 -0.96875q-0.1875 -0.609375 -0.1875 -1.53125l0 -5.796875l-1.421875 0l0 -0.734375l1.421875 -0.71875l0.703125 -2.09375l0.953125 0l0 2.296875l2.515625 0l0 1.25l-2.515625 0l0 5.796875q0 0.890625 0.28125 1.34375q0.296875 0.4375 0.953125 0.4375zm7.6188965 -9.015625q0.265625 0 0.59375 0.03125q0.328125 0.015625 0.5625 0.0625l-0.21875 1.53125q-0.25 -0.046875 -0.515625 -0.078125q-0.265625 -0.03125 -0.5 -0.03125q-0.578125 0 -1.0625 0.234375q-0.46875 0.234375 -0.8125 0.671875q-0.34375 0.421875 -0.53125 1.03125q-0.171875 0.609375 -0.171875 1.34375l0 5.390625l-1.671875 0l0 -10.0l1.359375 0l0.203125 1.828125l0.0625 0q0.234375 -0.390625 0.484375 -0.75q0.265625 -0.375 0.578125 -0.640625q0.328125 -0.28125 0.734375 -0.453125q0.40625 -0.171875 0.90625 -0.171875zm11.270569 5.171875q0 1.25 -0.3125 2.21875q-0.296875 0.96875 -0.875 1.625q-0.5625 0.65625 -1.375 1.015625q-0.796875 0.34375 -1.8125 0.34375q-0.9375 0 -1.734375 -0.34375q-0.796875 -0.359375 -1.375 -1.015625q-0.578125 -0.65625 -0.90625 -1.625q-0.3125 -0.96875 -0.3125 -2.21875q0 -1.25 0.296875 -2.203125q0.3125 -0.96875 0.875 -1.625q0.5625 -0.65625 1.375 -1.0q0.828125 -0.34375 1.828125 -0.34375q0.9375 0 1.734375 0.34375q0.796875 0.34375 1.375 1.0q0.578125 0.65625 0.890625 1.625q0.328125 0.953125 0.328125 2.203125zm-7.0 0q0 1.90625 0.625 2.875q0.625 0.953125 2.03125 0.953125q1.40625 0 2.015625 -0.953125q0.625 -0.96875 0.625 -2.875q0 -1.90625 -0.625 -2.84375q-0.625 -0.953125 -2.03125 -0.953125q-1.40625 0 -2.03125 0.953125q-0.609375 0.9375 -0.609375 2.84375zm11.28302 5.015625l-1.671875 0l0 -14.171875l1.671875 0l0 14.171875zm2.921814 -1.015625q0 -0.34375 0.078125 -0.578125q0.09375 -0.25 0.25 -0.390625q0.15625 -0.15625 0.359375 -0.21875q0.21875 -0.078125 0.46875 -0.078125q0.234375 0 0.4375 0.078125q0.21875 0.0625 0.375 0.21875q0.15625 0.140625 0.25 0.390625q0.09375 0.234375 0.09375 0.578125q0 0.34375 -0.09375 0.59375q-0.09375 0.234375 -0.25 0.390625q-0.15625 0.15625 -0.375 0.21875q-0.203125 0.078125 -0.4375 0.078125q-0.25 0 -0.46875 -0.078125q-0.203125 -0.0625 -0.359375 -0.21875q-0.15625 -0.15625 -0.25 -0.390625q-0.078125 -0.25 -0.078125 -0.59375zm9.063599 1.203125q-0.921875 0 -1.71875 -0.28125q-0.796875 -0.296875 -1.390625 -0.921875q-0.59375 -0.625 -0.9375 -1.59375q-0.328125 -0.96875 -0.328125 -2.34375q0 -1.421875 0.34375 -2.421875q0.34375 -1.0 0.953125 -1.625q0.609375 -0.625 1.421875 -0.90625q0.8125 -0.28125 1.734375 -0.28125q0.703125 0 1.375 0.15625q0.6875 0.15625 1.140625 0.390625l-0.484375 1.390625q-0.203125 -0.078125 -0.46875 -0.171875q-0.25 -0.09375 -0.53125 -0.15625q-0.265625 -0.0625 -0.53125 -0.109375q-0.265625 -0.046875 -0.5 -0.046875q-1.4375 0 -2.09375 0.921875q-0.65625 0.921875 -0.65625 2.84375q0 1.921875 0.65625 2.8125q0.671875 0.890625 2.015625 0.890625q0.75 0 1.34375 -0.171875q0.59375 -0.171875 1.078125 -0.390625l0 1.46875q-0.484375 0.265625 -1.046875 0.40625q-0.5625 0.140625 -1.375 0.140625zm9.338928 0q-0.546875 0 -0.984375 -0.125q-0.4375 -0.109375 -0.796875 -0.3125q-0.34375 -0.203125 -0.609375 -0.453125q-0.265625 -0.265625 -0.46875 -0.5625l-0.109375 0q0.015625 0.3125 0.046875 0.59375q0.015625 0.234375 0.03125 0.484375q0.03125 0.25 0.03125 0.390625l0 4.28125l-1.671875 0l0 -14.484375l1.359375 0l0.234375 1.34375l0.078125 0q0.203125 -0.3125 0.46875 -0.59375q0.265625 -0.28125 0.609375 -0.484375q0.359375 -0.203125 0.796875 -0.328125q0.4375 -0.125 0.984375 -0.125q0.84375 0 1.546875 0.328125q0.703125 0.328125 1.203125 0.984375q0.5 0.65625 0.765625 1.625q0.28125 0.953125 0.28125 2.234375q0 1.28125 -0.28125 2.25q-0.265625 0.96875 -0.765625 1.625q-0.5 0.65625 -1.203125 1.0q-0.703125 0.328125 -1.546875 0.328125zm-0.328125 -9.0q-0.6875 0 -1.171875 0.21875q-0.46875 0.203125 -0.765625 0.640625q-0.296875 0.421875 -0.4375 1.0625q-0.140625 0.625 -0.15625 1.5l0 0.375q0 0.921875 0.109375 1.640625q0.125 0.703125 0.421875 1.203125q0.296875 0.484375 0.78125 0.734375q0.5 0.25 1.234375 0.25q1.234375 0 1.8125 -0.984375q0.578125 -1.0 0.578125 -2.859375q0 -1.90625 -0.578125 -2.84375q-0.578125 -0.9375 -1.828125 -0.9375zm11.2595215 9.0q-0.546875 0 -0.984375 -0.125q-0.4375 -0.109375 -0.796875 -0.3125q-0.34375 -0.203125 -0.609375 -0.453125q-0.265625 -0.265625 -0.46875 -0.5625l-0.109375 0q0.015625 0.3125 0.046875 0.59375q0.015625 0.234375 0.03125 0.484375q0.03125 0.25 0.03125 0.390625l0 4.28125l-1.671875 0l0 -14.484375l1.359375 0l0.234375 1.34375l0.078125 0q0.203125 -0.3125 0.46875 -0.59375q0.265625 -0.28125 0.609375 -0.484375q0.359375 -0.203125 0.796875 -0.328125q0.4375 -0.125 0.984375 -0.125q0.84375 0 1.546875 0.328125q0.703125 0.328125 1.203125 0.984375q0.5 0.65625 0.765625 1.625q0.28125 0.953125 0.28125 2.234375q0 1.28125 -0.28125 2.25q-0.265625 0.96875 -0.765625 1.625q-0.5 0.65625 -1.203125 1.0q-0.703125 0.328125 -1.546875 0.328125zm-0.328125 -9.0q-0.6875 0 -1.171875 0.21875q-0.46875 0.203125 -0.765625 0.640625q-0.296875 0.421875 -0.4375 1.0625q-0.140625 0.625 -0.15625 1.5l0 0.375q0 0.921875 0.109375 1.640625q0.125 0.703125 0.421875 1.203125q0.296875 0.484375 0.78125 0.734375q0.5 0.25 1.234375 0.25q1.234375 0 1.8125 -0.984375q0.578125 -1.0 0.578125 -2.859375q0 -1.90625 -0.578125 -2.84375q-0.578125 -0.9375 -1.828125 -0.9375z" fill-rule="nonzero"/><path fill="#cfe2f3" d="m383.82166 113.82306l0 0c0 -8.720764 7.06958 -15.790337 15.790344 -15.790337l222.75 0c4.187866 0 8.204224 1.66362 11.165466 4.624878c2.9613037 2.9612656 4.624878 6.9776 4.624878 11.165459l0 63.15947c0 8.720764 -7.069519 15.790344 -15.790344 15.790344l-222.75 0l0 0c-8.720764 0 -15.790344 -7.06958 -15.790344 -15.790344z" fill-rule="evenodd"/><path stroke="#000000" stroke-width="1.0" stroke-linejoin="round" stroke-linecap="butt" d="m383.82166 113.82306l0 0c0 -8.720764 7.06958 -15.790337 15.790344 -15.790337l222.75 0c4.187866 0 8.204224 1.66362 11.165466 4.624878c2.9613037 2.9612656 4.624878 6.9776 4.624878 11.165459l0 63.15947c0 8.720764 -7.069519 15.790344 -15.790344 15.790344l-222.75 0l0 0c-8.720764 0 -15.790344 -7.06958 -15.790344 -15.790344z" fill-rule="evenodd"/><path fill="#000000" fill-opacity="0.0" d="m453.78543 119.445l114.36221 0l0 42.015755l-114.36221 0z" fill-rule="evenodd"/><path fill="#000000" d="m476.34793 146.365l0 -6.4375q0 -1.1875 -0.453125 -1.78125q-0.453125 -0.59375 -1.40625 -0.59375q-0.671875 0 -1.140625 0.21875q-0.453125 0.21875 -0.75 0.640625q-0.296875 0.40625 -0.4375 1.015625q-0.140625 0.609375 -0.140625 1.421875l0 5.515625l-1.671875 0l0 -6.4375q0 -1.1875 -0.453125 -1.78125q-0.4375 -0.59375 -1.390625 -0.59375q-0.703125 0 -1.1875 0.25q-0.46875 0.234375 -0.765625 0.703125q-0.28125 0.453125 -0.40625 1.125q-0.109375 0.671875 -0.109375 1.546875l0 5.1875l-1.671875 0l0 -10.0l1.359375 0l0.234375 1.34375l0.09375 0q0.21875 -0.390625 0.515625 -0.671875q0.296875 -0.296875 0.65625 -0.484375q0.359375 -0.1875 0.765625 -0.28125q0.40625 -0.09375 0.828125 -0.09375q1.09375 0 1.8125 0.40625q0.734375 0.40625 1.078125 1.25l0.0625 0q0.25 -0.421875 0.578125 -0.734375q0.328125 -0.3125 0.71875 -0.515625q0.40625 -0.203125 0.84375 -0.296875q0.4375 -0.109375 0.890625 -0.109375q1.59375 0 2.390625 0.875q0.8125 0.875 0.8125 2.78125l0 6.53125l-1.65625 0zm10.372192 0l-0.328125 -1.390625l-0.078125 0q-0.296875 0.421875 -0.609375 0.71875q-0.296875 0.296875 -0.65625 0.484375q-0.34375 0.1875 -0.78125 0.28125q-0.4375 0.09375 -1.015625 0.09375q-0.625 0 -1.15625 -0.1875q-0.53125 -0.171875 -0.921875 -0.53125q-0.375 -0.375 -0.59375 -0.9375q-0.21875 -0.5625 -0.21875 -1.328125q0 -1.5 1.046875 -2.296875q1.046875 -0.796875 3.203125 -0.875l1.671875 -0.0625l0 -0.625q0 -0.609375 -0.140625 -1.015625q-0.125 -0.421875 -0.375 -0.671875q-0.25 -0.25 -0.625 -0.359375q-0.359375 -0.109375 -0.828125 -0.109375q-0.765625 0 -1.421875 0.21875q-0.640625 0.21875 -1.234375 0.53125l-0.59375 -1.25q0.671875 -0.359375 1.5 -0.609375q0.84375 -0.265625 1.75 -0.265625q0.921875 0 1.59375 0.1875q0.6875 0.1875 1.125 0.59375q0.453125 0.40625 0.671875 1.03125q0.21875 0.625 0.21875 1.53125l0 6.84375l-1.203125 0zm-3.03125 -1.15625q0.546875 0 1.015625 -0.171875q0.484375 -0.171875 0.828125 -0.515625q0.34375 -0.359375 0.53125 -0.890625q0.203125 -0.53125 0.203125 -1.25l0 -0.90625l-1.296875 0.0625q-0.828125 0.03125 -1.390625 0.1875q-0.546875 0.140625 -0.875 0.40625q-0.328125 0.25 -0.484375 0.625q-0.140625 0.359375 -0.140625 0.828125q0 0.84375 0.4375 1.234375q0.453125 0.390625 1.171875 0.390625zm8.964508 1.15625l-1.671875 0l0 -10.0l1.671875 0l0 10.0zm-1.796875 -12.703125q0 -0.546875 0.28125 -0.796875q0.28125 -0.25 0.6875 -0.25q0.203125 0 0.375 0.0625q0.1875 0.0625 0.3125 0.1875q0.140625 0.125 0.203125 0.328125q0.078125 0.1875 0.078125 0.46875q0 0.53125 -0.28125 0.796875q-0.28125 0.25 -0.6875 0.25q-0.40625 0 -0.6875 -0.25q-0.28125 -0.265625 -0.28125 -0.796875zm11.203033 12.703125l0 -6.4375q0 -1.1875 -0.484375 -1.78125q-0.46875 -0.59375 -1.484375 -0.59375q-0.734375 0 -1.234375 0.25q-0.5 0.234375 -0.8125 0.703125q-0.3125 0.453125 -0.4375 1.125q-0.125 0.671875 -0.125 1.546875l0 5.1875l-1.671875 0l0 -10.0l1.359375 0l0.234375 1.34375l0.09375 0q0.21875 -0.390625 0.53125 -0.671875q0.328125 -0.296875 0.6875 -0.484375q0.375 -0.1875 0.796875 -0.28125q0.421875 -0.09375 0.859375 -0.09375q1.671875 0 2.5 0.875q0.84375 0.875 0.84375 2.78125l0 6.53125l-1.65625 0zm4.5016785 -1.015625q0 -0.34375 0.078125 -0.578125q0.09375 -0.25 0.25 -0.390625q0.15625 -0.15625 0.359375 -0.21875q0.21875 -0.078125 0.46875 -0.078125q0.234375 0 0.4375 0.078125q0.21875 0.0625 0.375 0.21875q0.15625 0.140625 0.25 0.390625q0.09375 0.234375 0.09375 0.578125q0 0.34375 -0.09375 0.59375q-0.09375 0.234375 -0.25 0.390625q-0.15625 0.15625 -0.375 0.21875q-0.203125 0.078125 -0.4375 0.078125q-0.25 0 -0.46875 -0.078125q-0.203125 -0.0625 -0.359375 -0.21875q-0.15625 -0.15625 -0.25 -0.390625q-0.078125 -0.25 -0.078125 -0.59375zm9.063599 1.203125q-0.921875 0 -1.71875 -0.28125q-0.796875 -0.296875 -1.390625 -0.921875q-0.5937195 -0.625 -0.9374695 -1.59375q-0.328125 -0.96875 -0.328125 -2.34375q0 -1.421875 0.34375 -2.421875q0.34375 -1.0 0.9530945 -1.625q0.609375 -0.625 1.421875 -0.90625q0.8125 -0.28125 1.734375 -0.28125q0.703125 0 1.375 0.15625q0.6875 0.15625 1.140625 0.390625l-0.484375 1.390625q-0.203125 -0.078125 -0.46875 -0.171875q-0.25 -0.09375 -0.53125 -0.15625q-0.265625 -0.0625 -0.53125 -0.109375q-0.265625 -0.046875 -0.5 -0.046875q-1.4375 0 -2.09375 0.921875q-0.65625 0.921875 -0.65625 2.84375q0 1.921875 0.65625 2.8125q0.671875 0.890625 2.015625 0.890625q0.75 0 1.34375 -0.171875q0.59375 -0.171875 1.078125 -0.390625l0 1.46875q-0.484375 0.265625 -1.046875 0.40625q-0.5625 0.140625 -1.375 0.140625zm9.338928 0q-0.546875 0 -0.984375 -0.125q-0.4375 -0.109375 -0.796875 -0.3125q-0.34375 -0.203125 -0.609375 -0.453125q-0.265625 -0.265625 -0.46875 -0.5625l-0.109375 0q0.015625 0.3125 0.046875 0.59375q0.015625 0.234375 0.03125 0.484375q0.03125 0.25 0.03125 0.390625l0 4.28125l-1.671875 0l0 -14.484375l1.359375 0l0.234375 1.34375l0.078125 0q0.203125 -0.3125 0.46875 -0.59375q0.265625 -0.28125 0.609375 -0.484375q0.359375 -0.203125 0.796875 -0.328125q0.4375 -0.125 0.984375 -0.125q0.84375 0 1.546875 0.328125q0.703125 0.328125 1.203125 0.984375q0.5 0.65625 0.765625 1.625q0.28125 0.953125 0.28125 2.234375q0 1.28125 -0.28125 2.25q-0.265625 0.96875 -0.765625 1.625q-0.5 0.65625 -1.203125 1.0q-0.703125 0.328125 -1.546875 0.328125zm-0.328125 -9.0q-0.6875 0 -1.171875 0.21875q-0.46875 0.203125 -0.765625 0.640625q-0.296875 0.421875 -0.4375 1.0625q-0.140625 0.625 -0.15625 1.5l0 0.375q0 0.921875 0.109375 1.640625q0.125 0.703125 0.421875 1.203125q0.296875 0.484375 0.78125 0.734375q0.5 0.25 1.234375 0.25q1.234375 0 1.8125 -0.984375q0.578125 -1.0 0.578125 -2.859375q0 -1.90625 -0.578125 -2.84375q-0.578125 -0.9375 -1.828125 -0.9375zm11.2595215 9.0q-0.546875 0 -0.984375 -0.125q-0.4375 -0.109375 -0.796875 -0.3125q-0.34375 -0.203125 -0.609375 -0.453125q-0.265625 -0.265625 -0.46875 -0.5625l-0.109375 0q0.015625 0.3125 0.046875 0.59375q0.015625 0.234375 0.03125 0.484375q0.03125 0.25 0.03125 0.390625l0 4.28125l-1.671875 0l0 -14.484375l1.359375 0l0.234375 1.34375l0.078125 0q0.203125 -0.3125 0.46875 -0.59375q0.265625 -0.28125 0.609375 -0.484375q0.359375 -0.203125 0.796875 -0.328125q0.4375 -0.125 0.984375 -0.125q0.84375 0 1.546875 0.328125q0.703125 0.328125 1.203125 0.984375q0.5 0.65625 0.765625 1.625q0.28125 0.953125 0.28125 2.234375q0 1.28125 -0.28125 2.25q-0.265625 0.96875 -0.765625 1.625q-0.5 0.65625 -1.203125 1.0q-0.703125 0.328125 -1.546875 0.328125zm-0.328125 -9.0q-0.6875 0 -1.171875 0.21875q-0.46875 0.203125 -0.765625 0.640625q-0.296875 0.421875 -0.4375 1.0625q-0.140625 0.625 -0.15625 1.5l0 0.375q0 0.921875 0.109375 1.640625q0.125 0.703125 0.421875 1.203125q0.296875 0.484375 0.78125 0.734375q0.5 0.25 1.234375 0.25q1.234375 0 1.8125 -0.984375q0.578125 -1.0 0.578125 -2.859375q0 -1.90625 -0.578125 -2.84375q-0.578125 -0.9375 -1.828125 -0.9375z" fill-rule="nonzero"/><path fill="#000000" fill-opacity="0.0" d="m197.64929 568.45044c0 12.5 78.33069 24.992126 156.6614 25.0c78.33072 0.007873535 156.6614 -12.468445 156.6614 -24.93695" fill-rule="evenodd"/><path stroke="#000000" stroke-width="1.0" stroke-linejoin="round" stroke-linecap="butt" d="m197.64929 568.45044c0 12.5 78.33069 24.992126 156.6614 25.0c78.33072 0.007873535 156.6614 -12.468445 156.6614 -24.93695" fill-rule="evenodd"/><path fill="#000000" fill-opacity="0.0" d="m383.82166 324.88217c-93.08661 0 -186.17322 74.409454 -186.17322 148.81891" fill-rule="evenodd"/><path stroke="#000000" stroke-width="1.0" stroke-linejoin="round" stroke-linecap="butt" d="m383.82166 324.88217c-93.08661 0 -186.17322 74.409454 -186.17322 148.81891" fill-rule="evenodd"/><path fill="#000000" fill-opacity="0.0" d="m510.98703 192.77287c0 21.184494 0.01574707 31.778442 0.03149414 42.368988c0.01574707 10.590546 0.03149414 21.17772 0.03149414 42.355423" fill-rule="evenodd"/><path stroke="#000000" stroke-width="1.0" stroke-linejoin="round" stroke-linecap="butt" d="m510.98703 192.77287c0 21.184494 0.01574707 31.778442 0.03149414 42.368988c0.01574707 10.590546 0.03149414 21.17772 0.03149414 42.355423" fill-rule="evenodd"/><path fill="#000000" fill-opacity="0.0" d="m510.9057 372.2305c0 25.370056 0.01574707 38.055115 0.03149414 50.740143c0.01574707 12.685059 0.03149414 25.370087 0.03149414 50.740173" fill-rule="evenodd"/><path stroke="#000000" stroke-width="1.0" stroke-linejoin="round" stroke-linecap="butt" d="m510.9057 372.2305c0 25.370056 0.01574707 38.055115 0.03149414 50.740143c0.01574707 12.685059 0.03149414 25.370087 0.03149414 50.740173" fill-rule="evenodd"/><path fill="#9fc5e8" d="m367.90887 581.00183l-27.181091 17.84253l27.181091 17.84253z" fill-rule="evenodd"/><path stroke="#000000" stroke-width="1.0" stroke-linejoin="round" stroke-linecap="butt" d="m367.90887 581.00183l-27.181091 17.84253l27.181091 17.84253z" fill-rule="evenodd"/><path fill="#9fc5e8" d="m285.60318 367.94135l-31.102356 4.7716675l11.921265 -33.02362z" fill-rule="evenodd"/><path stroke="#000000" stroke-width="1.0" stroke-linejoin="round" stroke-linecap="butt" d="m285.60318 367.94135l-31.102356 4.7716675l11.921265 -33.02362z" fill-rule="evenodd"/><path fill="#000000" fill-opacity="0.0" d="m638.1266 324.86804c93.08661 0 186.17322 74.4252 186.17322 148.8504" fill-rule="evenodd"/><path stroke="#000000" stroke-width="1.0" stroke-linejoin="round" stroke-linecap="butt" d="m638.1266 324.86804c93.08661 0 186.17322 74.4252 186.17322 148.8504" fill-rule="evenodd"/><path fill="#9fc5e8" d="m736.34503 367.94135l31.102356 4.7716675l-11.921265 -33.02362z" fill-rule="evenodd"/><path stroke="#000000" stroke-width="1.0" stroke-linejoin="round" stroke-linecap="butt" d="m736.34503 367.94135l31.102356 4.7716675l-11.921265 -33.02362z" fill-rule="evenodd"/><path fill="#9fc5e8" d="m526.67426 413.51154l-15.716522 30.86615l-15.716522 -30.86615z" fill-rule="evenodd"/><path stroke="#000000" stroke-width="1.0" stroke-linejoin="round" stroke-linecap="butt" d="m526.67426 413.51154l-15.716522 30.86615l-15.716522 -30.86615z" fill-rule="evenodd"/><path fill="#9fc5e8" d="m526.67426 225.79916l-15.716522 30.86615l-15.716522 -30.86615z" fill-rule="evenodd"/><path stroke="#000000" stroke-width="1.0" stroke-linejoin="round" stroke-linecap="butt" d="m526.67426 225.79916l-15.716522 30.86615l-15.716522 -30.86615z" fill-rule="evenodd"/><path fill="#000000" fill-opacity="0.0" d="m824.2976 473.72327c-93.08661 0 -186.17322 -74.4252 -186.17322 -148.85037" fill-rule="evenodd"/><path stroke="#000000" stroke-width="1.0" stroke-linejoin="round" stroke-linecap="butt" d="m824.2976 473.72327c-93.08661 0 -186.17322 -74.4252 -186.17322 -148.85037" fill-rule="evenodd"/><path fill="#9fc5e8" d="m726.0791 430.65l-31.102356 -4.7716675l11.921265 33.02362z" fill-rule="evenodd"/><path stroke="#000000" stroke-width="1.0" stroke-linejoin="round" stroke-linecap="butt" d="m726.0791 430.65l-31.102356 -4.7716675l11.921265 33.02362z" fill-rule="evenodd"/><path fill="#000000" fill-opacity="0.0" d="m91.44824 207.22961c10.17485 0 15.263092 0.01574707 20.349709 0.03149414c5.0866165 0.01574707 10.1716 0.03149414 20.343208 0.03149414" fill-rule="evenodd"/><path stroke="#000000" stroke-width="1.0" stroke-linejoin="round" stroke-linecap="butt" d="m91.44824 207.22961c10.17485 0 15.263092 0.01574707 20.349709 0.03149414c5.0866165 0.01574707 10.1716 0.03149414 20.343208 0.03149414" fill-rule="evenodd"/><path fill="#9fc5e8" d="m107.31083 220.91185l14.834648 -13.700775l-14.834648 -13.70079z" fill-rule="evenodd"/><path stroke="#000000" stroke-width="1.0" stroke-linejoin="round" stroke-linecap="butt" d="m107.31083 220.91185l14.834648 -13.700775l-14.834648 -13.70079z" fill-rule="evenodd"/><path fill="#000000" fill-opacity="0.0" d="m134.82974 184.27176l145.16534 0l0 37.16536l-145.16534 0z" fill-rule="evenodd"/><path fill="#000000" d="m144.56412 201.25801l0 -1.0625l6.609375 0l0 1.0625l-6.609375 0zm0 2.9375l0 -1.078125l6.609375 0l0 1.078125l-6.609375 0zm15.395203 3.296875q-0.71875 0 -1.359375 -0.21875q-0.625 -0.234375 -1.09375 -0.71875q-0.453125 -0.484375 -0.71875 -1.25q-0.265625 -0.765625 -0.265625 -1.84375q0 -1.125 0.265625 -1.90625q0.28125 -0.78125 0.75 -1.265625q0.46875 -0.5 1.109375 -0.71875q0.640625 -0.21875 1.375 -0.21875q0.546875 0 1.078125 0.125q0.546875 0.125 0.90625 0.296875l-0.390625 1.109375q-0.171875 -0.078125 -0.375 -0.140625q-0.1875 -0.078125 -0.40625 -0.125q-0.21875 -0.0625 -0.421875 -0.09375q-0.203125 -0.03125 -0.390625 -0.03125q-1.125 0 -1.640625 0.71875q-0.515625 0.71875 -0.515625 2.234375q0 1.515625 0.515625 2.21875q0.515625 0.6875 1.578125 0.6875q0.578125 0 1.046875 -0.125q0.46875 -0.140625 0.859375 -0.3125l0 1.15625q-0.390625 0.203125 -0.828125 0.3125q-0.4375 0.109375 -1.078125 0.109375zm8.206116 -0.140625l-0.265625 -1.09375l-0.046875 0q-0.25 0.328125 -0.484375 0.5625q-0.234375 0.234375 -0.515625 0.390625q-0.265625 0.140625 -0.609375 0.203125q-0.34375 0.078125 -0.796875 0.078125q-0.5 0 -0.921875 -0.140625q-0.40625 -0.140625 -0.71875 -0.421875q-0.296875 -0.296875 -0.46875 -0.734375q-0.171875 -0.4375 -0.171875 -1.046875q0 -1.171875 0.828125 -1.796875q0.828125 -0.625 2.515625 -0.6875l1.3125 -0.046875l0 -0.5q0 -0.46875 -0.109375 -0.796875q-0.09375 -0.328125 -0.296875 -0.515625q-0.1875 -0.203125 -0.484375 -0.28125q-0.28125 -0.09375 -0.65625 -0.09375q-0.59375 0 -1.109375 0.171875q-0.515625 0.171875 -0.984375 0.421875l-0.453125 -0.984375q0.53125 -0.28125 1.171875 -0.484375q0.65625 -0.203125 1.375 -0.203125q0.734375 0 1.265625 0.15625q0.53125 0.140625 0.875 0.453125q0.34375 0.3125 0.515625 0.8125q0.171875 0.5 0.171875 1.203125l0 5.375l-0.9375 0zm-2.390625 -0.90625q0.4375 0 0.8125 -0.140625q0.375 -0.140625 0.640625 -0.40625q0.28125 -0.28125 0.421875 -0.6875q0.15625 -0.421875 0.15625 -1.0l0 -0.703125l-1.015625 0.046875q-0.640625 0.03125 -1.078125 0.15625q-0.4375 0.109375 -0.703125 0.3125q-0.265625 0.203125 -0.375 0.5q-0.109375 0.28125 -0.109375 0.640625q0 0.65625 0.34375 0.96875q0.34375 0.3125 0.90625 0.3125zm7.0446014 0.90625l-1.296875 0l0 -11.140625l1.296875 0l0 11.140625zm3.7928772 0l-1.296875 0l0 -11.140625l1.296875 0l0 11.140625zm5.589752 0.140625q-0.78125 0 -1.4375 -0.265625q-0.640625 -0.265625 -1.109375 -0.765625q-0.46875 -0.515625 -0.734375 -1.265625q-0.25 -0.75 -0.25 -1.71875q0 -0.96875 0.234375 -1.734375q0.234375 -0.765625 0.65625 -1.296875q0.4375 -0.53125 1.03125 -0.8125q0.59375 -0.28125 1.328125 -0.28125q0.703125 0 1.265625 0.25q0.5625 0.25 0.953125 0.71875q0.40625 0.46875 0.609375 1.109375q0.21875 0.640625 0.21875 1.4375l0 0.8125l-4.953125 0q0.03125 1.375 0.578125 2.03125q0.546875 0.640625 1.625 0.640625q0.375 0 0.6875 -0.03125q0.3125 -0.03125 0.59375 -0.09375q0.296875 -0.078125 0.5625 -0.171875q0.265625 -0.109375 0.546875 -0.234375l0 1.15625q-0.28125 0.125 -0.5625 0.234375q-0.265625 0.09375 -0.5625 0.15625q-0.28125 0.0625 -0.59375 0.09375q-0.3125 0.03125 -0.6875 0.03125zm-0.3125 -7.0625q-0.8125 0 -1.296875 0.5625q-0.46875 0.5625 -0.546875 1.625l3.515625 0q0 -0.484375 -0.09375 -0.890625q-0.09375 -0.40625 -0.296875 -0.6875q-0.203125 -0.296875 -0.53125 -0.453125q-0.3125 -0.15625 -0.75 -0.15625zm8.452759 -1.078125q0.21875 0 0.46875 0.015625q0.265625 0.015625 0.4375 0.0625l-0.171875 1.1875q-0.1875 -0.03125 -0.40625 -0.046875q-0.203125 -0.03125 -0.390625 -0.03125q-0.453125 0 -0.828125 0.1875q-0.375 0.171875 -0.640625 0.515625q-0.265625 0.34375 -0.421875 0.828125q-0.140625 0.46875 -0.140625 1.046875l0 4.234375l-1.296875 0l0 -7.859375l1.046875 0l0.171875 1.4375l0.046875 0q0.1875 -0.3125 0.390625 -0.59375q0.203125 -0.28125 0.453125 -0.5q0.25 -0.21875 0.5625 -0.34375q0.328125 -0.140625 0.71875 -0.140625zm8.638321 7.078125q0.125 0 0.28125 -0.015625q0.171875 -0.015625 0.3125 -0.03125q0.15625 -0.03125 0.28125 -0.046875q0.125 -0.03125 0.1875 -0.0625l0 1.0q-0.09375 0.03125 -0.234375 0.078125q-0.140625 0.046875 -0.3125 0.078125q-0.171875 0.03125 -0.359375 0.046875q-0.1875 0.015625 -0.375 0.015625q-0.4375 0 -0.8125 -0.109375q-0.375 -0.109375 -0.65625 -0.390625q-0.28125 -0.28125 -0.4375 -0.75q-0.15625 -0.484375 -0.15625 -1.203125l0 -4.5625l-1.109375 0l0 -0.578125l1.109375 -0.5625l0.5625 -1.640625l0.75 0l0 1.796875l1.96875 0l0 0.984375l-1.96875 0l0 4.5625q0 0.6875 0.21875 1.046875q0.234375 0.34375 0.75 0.34375zm8.997772 -3.015625q0 0.96875 -0.25 1.734375q-0.234375 0.765625 -0.6875 1.28125q-0.4375 0.515625 -1.078125 0.796875q-0.640625 0.265625 -1.4375 0.265625q-0.734375 0 -1.359375 -0.265625q-0.625 -0.28125 -1.078125 -0.796875q-0.453125 -0.515625 -0.703125 -1.28125q-0.25 -0.765625 -0.25 -1.734375q0 -0.984375 0.234375 -1.734375q0.234375 -0.75 0.671875 -1.265625q0.453125 -0.53125 1.09375 -0.796875q0.640625 -0.265625 1.4375 -0.265625q0.734375 0 1.359375 0.265625q0.625 0.265625 1.078125 0.796875q0.453125 0.515625 0.703125 1.265625q0.265625 0.75 0.265625 1.734375zm-5.5 0q0 1.484375 0.484375 2.25q0.5 0.75 1.59375 0.75q1.109375 0 1.59375 -0.75q0.484375 -0.765625 0.484375 -2.25q0 -1.5 -0.5 -2.234375q-0.484375 -0.75 -1.59375 -0.75q-1.09375 0 -1.578125 0.75q-0.484375 0.734375 -0.484375 2.234375zm14.359772 4.078125q-0.71875 0 -1.359375 -0.21875q-0.625 -0.234375 -1.09375 -0.71875q-0.453125 -0.484375 -0.71875 -1.25q-0.265625 -0.765625 -0.265625 -1.84375q0 -1.125 0.265625 -1.90625q0.28125 -0.78125 0.75 -1.265625q0.46875 -0.5 1.109375 -0.71875q0.640625 -0.21875 1.375 -0.21875q0.546875 0 1.078125 0.125q0.546875 0.125 0.90625 0.296875l-0.390625 1.109375q-0.171875 -0.078125 -0.375 -0.140625q-0.1875 -0.078125 -0.40625 -0.125q-0.21875 -0.0625 -0.421875 -0.09375q-0.203125 -0.03125 -0.390625 -0.03125q-1.125 0 -1.640625 0.71875q-0.515625 0.71875 -0.515625 2.234375q0 1.515625 0.515625 2.21875q0.515625 0.6875 1.578125 0.6875q0.578125 0 1.046875 -0.125q0.46875 -0.140625 0.859375 -0.3125l0 1.15625q-0.390625 0.203125 -0.828125 0.3125q-0.4375 0.109375 -1.078125 0.109375zm8.206116 -0.140625l-0.265625 -1.09375l-0.046875 0q-0.25 0.328125 -0.484375 0.5625q-0.234375 0.234375 -0.515625 0.390625q-0.265625 0.140625 -0.609375 0.203125q-0.34375 0.078125 -0.796875 0.078125q-0.5 0 -0.921875 -0.140625q-0.40625 -0.140625 -0.71875 -0.421875q-0.296875 -0.296875 -0.46875 -0.734375q-0.171875 -0.4375 -0.171875 -1.046875q0 -1.171875 0.828125 -1.796875q0.828125 -0.625 2.515625 -0.6875l1.3125 -0.046875l0 -0.5q0 -0.46875 -0.109375 -0.796875q-0.09375 -0.328125 -0.296875 -0.515625q-0.1875 -0.203125 -0.484375 -0.28125q-0.28125 -0.09375 -0.65625 -0.09375q-0.59375 0 -1.109375 0.171875q-0.515625 0.171875 -0.984375 0.421875l-0.453125 -0.984375q0.53125 -0.28125 1.171875 -0.484375q0.65625 -0.203125 1.375 -0.203125q0.734375 0 1.265625 0.15625q0.53125 0.140625 0.875 0.453125q0.34375 0.3125 0.515625 0.8125q0.171875 0.5 0.171875 1.203125l0 5.375l-0.9375 0zm-2.390625 -0.90625q0.4375 0 0.8125 -0.140625q0.375 -0.140625 0.640625 -0.40625q0.28125 -0.28125 0.421875 -0.6875q0.15625 -0.421875 0.15625 -1.0l0 -0.703125l-1.015625 0.046875q-0.640625 0.03125 -1.078125 0.15625q-0.4375 0.109375 -0.703125 0.3125q-0.265625 0.203125 -0.375 0.5q-0.109375 0.28125 -0.109375 0.640625q0 0.65625 0.34375 0.96875q0.34375 0.3125 0.90625 0.3125zm7.0446014 0.90625l-1.296875 0l0 -11.140625l1.296875 0l0 11.140625zm3.7928772 0l-1.296875 0l0 -11.140625l1.296875 0l0 11.140625zm5.589752 0.140625q-0.78125 0 -1.4375 -0.265625q-0.640625 -0.265625 -1.109375 -0.765625q-0.46875 -0.515625 -0.734375 -1.265625q-0.25 -0.75 -0.25 -1.71875q0 -0.96875 0.234375 -1.734375q0.234375 -0.765625 0.65625 -1.296875q0.4375 -0.53125 1.03125 -0.8125q0.59375 -0.28125 1.328125 -0.28125q0.703125 0 1.265625 0.25q0.5625 0.25 0.953125 0.71875q0.40625 0.46875 0.609375 1.109375q0.21875 0.640625 0.21875 1.4375l0 0.8125l-4.953125 0q0.03125 1.375 0.578125 2.03125q0.546875 0.640625 1.625 0.640625q0.375 0 0.6875 -0.03125q0.3125 -0.03125 0.59375 -0.09375q0.296875 -0.078125 0.5625 -0.171875q0.265625 -0.109375 0.546875 -0.234375l0 1.15625q-0.28125 0.125 -0.5625 0.234375q-0.265625 0.09375 -0.5625 0.15625q-0.28125 0.0625 -0.59375 0.09375q-0.3125 0.03125 -0.6875 0.03125zm-0.3125 -7.0625q-0.8125 0 -1.296875 0.5625q-0.46875 0.5625 -0.546875 1.625l3.515625 0q0 -0.484375 -0.09375 -0.890625q-0.09375 -0.40625 -0.296875 -0.6875q-0.203125 -0.296875 -0.53125 -0.453125q-0.3125 -0.15625 -0.75 -0.15625zm8.155884 7.0625q-0.78125 0 -1.4375 -0.265625q-0.640625 -0.265625 -1.109375 -0.765625q-0.46875 -0.515625 -0.734375 -1.265625q-0.25 -0.75 -0.25 -1.71875q0 -0.96875 0.234375 -1.734375q0.234375 -0.765625 0.65625 -1.296875q0.4375 -0.53125 1.03125 -0.8125q0.59375 -0.28125 1.328125 -0.28125q0.703125 0 1.265625 0.25q0.5625 0.25 0.953125 0.71875q0.40625 0.46875 0.609375 1.109375q0.21875 0.640625 0.21875 1.4375l0 0.8125l-4.953125 0q0.03125 1.375 0.578125 2.03125q0.546875 0.640625 1.625 0.640625q0.375 0 0.6875 -0.03125q0.3125 -0.03125 0.59375 -0.09375q0.296875 -0.078125 0.5625 -0.171875q0.265625 -0.109375 0.546875 -0.234375l0 1.15625q-0.28125 0.125 -0.5625 0.234375q-0.265625 0.09375 -0.5625 0.15625q-0.28125 0.0625 -0.59375 0.09375q-0.3125 0.03125 -0.6875 0.03125zm-0.3125 -7.0625q-0.8125 0 -1.296875 0.5625q-0.46875 0.5625 -0.546875 1.625l3.515625 0q0 -0.484375 -0.09375 -0.890625q-0.09375 -0.40625 -0.296875 -0.6875q-0.203125 -0.296875 -0.53125 -0.453125q-0.3125 -0.15625 -0.75 -0.15625z" fill-rule="nonzero"/></g></svg>